<svg xmlns="http://www.w3.org/2000/svg" viewBox="0 0 170 170" width="170" height="170">
    <path fill="#1ED760" d="M85 0C38.1 0 0 38.1 0 85s38.1 85 85 85 85-38.1 85-85S131.9 0 85 0zm39 122.8c-1.6 2.6-4.9 3.4-7.5 1.8-20.5-12.5-46.3-15.3-76.7-8.4-2.9.7-5.8-1.1-6.5-4-.7-2.9 1.1-5.8 4-6.5 33.3-7.6 61.8-4.3 84.7 9.6 2.6 1.6 3.4 4.9 1.8 7.5h.2zm10.4-23.1c-2 3.2-6.1 4.2-9.3 2.2-23.5-14.4-59.2-18.6-87-10.2-3.6 1.1-7.4-1-8.4-4.6-1.1-3.6 1-7.4 4.6-8.4 31.7-9.6 71.1-5 98.1 11.7 3.2 1.9 4.2 6.1 2.2 9.3h-.2zm.9-24.1c-28.2-16.7-74.6-18.3-101.4-10.1-4.3 1.3-8.8-1.2-10.1-5.5-1.3-4.3 1.2-8.8 5.5-10.1 30.9-9.4 82.2-7.6 114.5 11.7 3.9 2.3 5.2 7.4 2.9 11.3-2.3 3.9-7.4 5.2-11.3 2.9v-.2z"/>
</svg> 